<?xml version="1.0"?>
<svg xmlns="http://www.w3.org/2000/svg" xmlns:xlink="http://www.w3.org/1999/xlink" version="1.1" id="Layer_1" x="0px" y="0px" viewBox="0 0 473.935 473.935" style="enable-background:new 0 0 473.935 473.935;" xml:space="preserve" width="512px" height="512px" class=""><g><circle style="fill:#020202" cx="236.967" cy="236.967" r="236.967" data-original="#FFC10E" class="" data-old_color="#010101"/><g>
	<path style="fill:#F9F9F9" d="M356.671,354.1c-66.23-67.618-174.251-67.337-240.096,0.703   c-8.389,8.666,4.827,21.908,13.227,13.227c58.87-60.834,154.379-61.204,213.641-0.703   C351.896,375.96,365.116,362.721,356.671,354.1L356.671,354.1z" data-original="#333333" class="active-path" data-old_color="#F8F6F6"/>
	<circle style="fill:#F9F9F9" cx="164.938" cy="155.232" r="37.216" data-original="#333333" class="active-path" data-old_color="#F8F6F6"/>
	<circle style="fill:#F9F9F9" cx="305.667" cy="155.232" r="37.216" data-original="#333333" class="active-path" data-old_color="#F8F6F6"/>
</g><path style="fill:#F9F6F6" d="M343.167,188.612c0,0-27.517,33.874-27.517,68.819c0,15.203,12.31,27.521,27.513,27.525  c15.218-0.007,27.532-12.325,27.532-27.528C370.695,240.507,343.167,188.612,343.167,188.612z" data-original="#A2D4DE" class="" data-old_color="#F9F8F8"/></g> </svg>
